<mxfile host="Electron" modified="2024-03-28T09:43:56.824Z" agent="Mozilla/5.0 (X11; Linux x86_64) AppleWebKit/537.36 (KHTML, like Gecko) draw.io/24.1.0 Chrome/120.0.6099.109 Electron/28.1.0 Safari/537.36" etag="elLb-nTCezaX5q9Qrbqm" version="24.1.0" type="device">
  <diagram id="R2lEEEUBdFMjLlhIrx00" name="Page-1">
    <mxGraphModel dx="4435" dy="3185" grid="1" gridSize="10" guides="1" tooltips="1" connect="1" arrows="1" fold="1" page="1" pageScale="1" pageWidth="850" pageHeight="1100" math="0" shadow="0" extFonts="Permanent Marker^https://fonts.googleapis.com/css?family=Permanent+Marker">
      <root>
        <mxCell id="0" />
        <mxCell id="1" parent="0" />
        <mxCell id="Nd6j2Neas8TOyWglooFA-102" value="TarifaOperacionGlobal" style="shape=table;startSize=30;container=1;collapsible=1;childLayout=tableLayout;fixedRows=1;rowLines=0;fontStyle=1;align=center;resizeLast=1;" vertex="1" parent="1">
          <mxGeometry x="300" y="70" width="215" height="100" as="geometry" />
        </mxCell>
        <mxCell id="Nd6j2Neas8TOyWglooFA-103" value="" style="shape=partialRectangle;collapsible=0;dropTarget=0;pointerEvents=0;fillColor=none;points=[[0,0.5],[1,0.5]];portConstraint=eastwest;top=0;left=0;right=0;bottom=1;" vertex="1" parent="Nd6j2Neas8TOyWglooFA-102">
          <mxGeometry y="30" width="215" height="30" as="geometry" />
        </mxCell>
        <mxCell id="Nd6j2Neas8TOyWglooFA-104" value="PK" style="shape=partialRectangle;overflow=hidden;connectable=0;fillColor=none;top=0;left=0;bottom=0;right=0;fontStyle=1;" vertex="1" parent="Nd6j2Neas8TOyWglooFA-103">
          <mxGeometry width="30" height="30" as="geometry">
            <mxRectangle width="30" height="30" as="alternateBounds" />
          </mxGeometry>
        </mxCell>
        <mxCell id="Nd6j2Neas8TOyWglooFA-105" value="tarifaID" style="shape=partialRectangle;overflow=hidden;connectable=0;fillColor=none;top=0;left=0;bottom=0;right=0;align=left;spacingLeft=6;fontStyle=5;" vertex="1" parent="Nd6j2Neas8TOyWglooFA-103">
          <mxGeometry x="30" width="185" height="30" as="geometry">
            <mxRectangle width="185" height="30" as="alternateBounds" />
          </mxGeometry>
        </mxCell>
        <mxCell id="Nd6j2Neas8TOyWglooFA-106" value="" style="shape=partialRectangle;collapsible=0;dropTarget=0;pointerEvents=0;fillColor=none;points=[[0,0.5],[1,0.5]];portConstraint=eastwest;top=0;left=0;right=0;bottom=0;" vertex="1" parent="Nd6j2Neas8TOyWglooFA-102">
          <mxGeometry y="60" width="215" height="30" as="geometry" />
        </mxCell>
        <mxCell id="Nd6j2Neas8TOyWglooFA-107" value="" style="shape=partialRectangle;overflow=hidden;connectable=0;fillColor=none;top=0;left=0;bottom=0;right=0;" vertex="1" parent="Nd6j2Neas8TOyWglooFA-106">
          <mxGeometry width="30" height="30" as="geometry">
            <mxRectangle width="30" height="30" as="alternateBounds" />
          </mxGeometry>
        </mxCell>
        <mxCell id="Nd6j2Neas8TOyWglooFA-108" value="tarifa_operacion_global" style="shape=partialRectangle;overflow=hidden;connectable=0;fillColor=none;top=0;left=0;bottom=0;right=0;align=left;spacingLeft=6;" vertex="1" parent="Nd6j2Neas8TOyWglooFA-106">
          <mxGeometry x="30" width="185" height="30" as="geometry">
            <mxRectangle width="185" height="30" as="alternateBounds" />
          </mxGeometry>
        </mxCell>
        <mxCell id="Nd6j2Neas8TOyWglooFA-114" value="CuotaDestino" style="shape=table;startSize=30;container=1;collapsible=1;childLayout=tableLayout;fixedRows=1;rowLines=0;fontStyle=1;align=center;resizeLast=1;" vertex="1" parent="1">
          <mxGeometry x="260" y="-180" width="215" height="130" as="geometry" />
        </mxCell>
        <mxCell id="Nd6j2Neas8TOyWglooFA-115" value="" style="shape=partialRectangle;collapsible=0;dropTarget=0;pointerEvents=0;fillColor=none;points=[[0,0.5],[1,0.5]];portConstraint=eastwest;top=0;left=0;right=0;bottom=1;" vertex="1" parent="Nd6j2Neas8TOyWglooFA-114">
          <mxGeometry y="30" width="215" height="30" as="geometry" />
        </mxCell>
        <mxCell id="Nd6j2Neas8TOyWglooFA-116" value="PK" style="shape=partialRectangle;overflow=hidden;connectable=0;fillColor=none;top=0;left=0;bottom=0;right=0;fontStyle=1;" vertex="1" parent="Nd6j2Neas8TOyWglooFA-115">
          <mxGeometry width="30" height="30" as="geometry">
            <mxRectangle width="30" height="30" as="alternateBounds" />
          </mxGeometry>
        </mxCell>
        <mxCell id="Nd6j2Neas8TOyWglooFA-117" value="cuotaID" style="shape=partialRectangle;overflow=hidden;connectable=0;fillColor=none;top=0;left=0;bottom=0;right=0;align=left;spacingLeft=6;fontStyle=5;" vertex="1" parent="Nd6j2Neas8TOyWglooFA-115">
          <mxGeometry x="30" width="185" height="30" as="geometry">
            <mxRectangle width="185" height="30" as="alternateBounds" />
          </mxGeometry>
        </mxCell>
        <mxCell id="Nd6j2Neas8TOyWglooFA-121" value="" style="shape=partialRectangle;collapsible=0;dropTarget=0;pointerEvents=0;fillColor=none;points=[[0,0.5],[1,0.5]];portConstraint=eastwest;top=0;left=0;right=0;bottom=0;" vertex="1" parent="Nd6j2Neas8TOyWglooFA-114">
          <mxGeometry y="60" width="215" height="30" as="geometry" />
        </mxCell>
        <mxCell id="Nd6j2Neas8TOyWglooFA-122" value="" style="shape=partialRectangle;overflow=hidden;connectable=0;fillColor=none;top=0;left=0;bottom=0;right=0;" vertex="1" parent="Nd6j2Neas8TOyWglooFA-121">
          <mxGeometry width="30" height="30" as="geometry">
            <mxRectangle width="30" height="30" as="alternateBounds" />
          </mxGeometry>
        </mxCell>
        <mxCell id="Nd6j2Neas8TOyWglooFA-123" value="destino" style="shape=partialRectangle;overflow=hidden;connectable=0;fillColor=none;top=0;left=0;bottom=0;right=0;align=left;spacingLeft=6;" vertex="1" parent="Nd6j2Neas8TOyWglooFA-121">
          <mxGeometry x="30" width="185" height="30" as="geometry">
            <mxRectangle width="185" height="30" as="alternateBounds" />
          </mxGeometry>
        </mxCell>
        <mxCell id="Nd6j2Neas8TOyWglooFA-118" value="" style="shape=partialRectangle;collapsible=0;dropTarget=0;pointerEvents=0;fillColor=none;points=[[0,0.5],[1,0.5]];portConstraint=eastwest;top=0;left=0;right=0;bottom=0;" vertex="1" parent="Nd6j2Neas8TOyWglooFA-114">
          <mxGeometry y="90" width="215" height="30" as="geometry" />
        </mxCell>
        <mxCell id="Nd6j2Neas8TOyWglooFA-119" value="" style="shape=partialRectangle;overflow=hidden;connectable=0;fillColor=none;top=0;left=0;bottom=0;right=0;" vertex="1" parent="Nd6j2Neas8TOyWglooFA-118">
          <mxGeometry width="30" height="30" as="geometry">
            <mxRectangle width="30" height="30" as="alternateBounds" />
          </mxGeometry>
        </mxCell>
        <mxCell id="Nd6j2Neas8TOyWglooFA-120" value="cuota_destino" style="shape=partialRectangle;overflow=hidden;connectable=0;fillColor=none;top=0;left=0;bottom=0;right=0;align=left;spacingLeft=6;" vertex="1" parent="Nd6j2Neas8TOyWglooFA-118">
          <mxGeometry x="30" width="185" height="30" as="geometry">
            <mxRectangle width="185" height="30" as="alternateBounds" />
          </mxGeometry>
        </mxCell>
        <mxCell id="Nd6j2Neas8TOyWglooFA-127" value="EstadoPaquete" style="shape=table;startSize=30;container=1;collapsible=1;childLayout=tableLayout;fixedRows=1;rowLines=0;fontStyle=1;align=center;resizeLast=1;" vertex="1" parent="1">
          <mxGeometry x="-560" y="230" width="215" height="100" as="geometry" />
        </mxCell>
        <mxCell id="Nd6j2Neas8TOyWglooFA-128" value="" style="shape=partialRectangle;collapsible=0;dropTarget=0;pointerEvents=0;fillColor=none;points=[[0,0.5],[1,0.5]];portConstraint=eastwest;top=0;left=0;right=0;bottom=1;" vertex="1" parent="Nd6j2Neas8TOyWglooFA-127">
          <mxGeometry y="30" width="215" height="30" as="geometry" />
        </mxCell>
        <mxCell id="Nd6j2Neas8TOyWglooFA-129" value="PK" style="shape=partialRectangle;overflow=hidden;connectable=0;fillColor=none;top=0;left=0;bottom=0;right=0;fontStyle=1;" vertex="1" parent="Nd6j2Neas8TOyWglooFA-128">
          <mxGeometry width="30" height="30" as="geometry">
            <mxRectangle width="30" height="30" as="alternateBounds" />
          </mxGeometry>
        </mxCell>
        <mxCell id="Nd6j2Neas8TOyWglooFA-130" value="estadoID" style="shape=partialRectangle;overflow=hidden;connectable=0;fillColor=none;top=0;left=0;bottom=0;right=0;align=left;spacingLeft=6;fontStyle=5;" vertex="1" parent="Nd6j2Neas8TOyWglooFA-128">
          <mxGeometry x="30" width="185" height="30" as="geometry">
            <mxRectangle width="185" height="30" as="alternateBounds" />
          </mxGeometry>
        </mxCell>
        <mxCell id="Nd6j2Neas8TOyWglooFA-131" value="" style="shape=partialRectangle;collapsible=0;dropTarget=0;pointerEvents=0;fillColor=none;points=[[0,0.5],[1,0.5]];portConstraint=eastwest;top=0;left=0;right=0;bottom=0;" vertex="1" parent="Nd6j2Neas8TOyWglooFA-127">
          <mxGeometry y="60" width="215" height="30" as="geometry" />
        </mxCell>
        <mxCell id="Nd6j2Neas8TOyWglooFA-132" value="" style="shape=partialRectangle;overflow=hidden;connectable=0;fillColor=none;top=0;left=0;bottom=0;right=0;" vertex="1" parent="Nd6j2Neas8TOyWglooFA-131">
          <mxGeometry width="30" height="30" as="geometry">
            <mxRectangle width="30" height="30" as="alternateBounds" />
          </mxGeometry>
        </mxCell>
        <mxCell id="Nd6j2Neas8TOyWglooFA-133" value="nombre_estado" style="shape=partialRectangle;overflow=hidden;connectable=0;fillColor=none;top=0;left=0;bottom=0;right=0;align=left;spacingLeft=6;" vertex="1" parent="Nd6j2Neas8TOyWglooFA-131">
          <mxGeometry x="30" width="185" height="30" as="geometry">
            <mxRectangle width="185" height="30" as="alternateBounds" />
          </mxGeometry>
        </mxCell>
        <mxCell id="Nd6j2Neas8TOyWglooFA-259" style="edgeStyle=orthogonalEdgeStyle;rounded=0;orthogonalLoop=1;jettySize=auto;html=1;entryX=0;entryY=0.5;entryDx=0;entryDy=0;endArrow=ERone;endFill=0;startArrow=ERmany;startFill=0;" edge="1" parent="1" source="Nd6j2Neas8TOyWglooFA-137" target="Nd6j2Neas8TOyWglooFA-82">
          <mxGeometry relative="1" as="geometry" />
        </mxCell>
        <mxCell id="Nd6j2Neas8TOyWglooFA-137" value="GanaciaReporteIntervalo" style="shape=table;startSize=30;container=1;collapsible=1;childLayout=tableLayout;fixedRows=1;rowLines=0;fontStyle=1;align=center;resizeLast=1;" vertex="1" parent="1">
          <mxGeometry x="-730" y="-200" width="215" height="160" as="geometry">
            <mxRectangle x="610" y="1040" width="170" height="30" as="alternateBounds" />
          </mxGeometry>
        </mxCell>
        <mxCell id="Nd6j2Neas8TOyWglooFA-138" value="" style="shape=partialRectangle;collapsible=0;dropTarget=0;pointerEvents=0;fillColor=none;points=[[0,0.5],[1,0.5]];portConstraint=eastwest;top=0;left=0;right=0;bottom=1;" vertex="1" parent="Nd6j2Neas8TOyWglooFA-137">
          <mxGeometry y="30" width="215" height="30" as="geometry" />
        </mxCell>
        <mxCell id="Nd6j2Neas8TOyWglooFA-139" value="PK" style="shape=partialRectangle;overflow=hidden;connectable=0;fillColor=none;top=0;left=0;bottom=0;right=0;fontStyle=1;" vertex="1" parent="Nd6j2Neas8TOyWglooFA-138">
          <mxGeometry width="30" height="30" as="geometry">
            <mxRectangle width="30" height="30" as="alternateBounds" />
          </mxGeometry>
        </mxCell>
        <mxCell id="Nd6j2Neas8TOyWglooFA-140" value="reporteID" style="shape=partialRectangle;overflow=hidden;connectable=0;fillColor=none;top=0;left=0;bottom=0;right=0;align=left;spacingLeft=6;fontStyle=5;" vertex="1" parent="Nd6j2Neas8TOyWglooFA-138">
          <mxGeometry x="30" width="185" height="30" as="geometry">
            <mxRectangle width="185" height="30" as="alternateBounds" />
          </mxGeometry>
        </mxCell>
        <mxCell id="Nd6j2Neas8TOyWglooFA-141" value="" style="shape=partialRectangle;collapsible=0;dropTarget=0;pointerEvents=0;fillColor=none;points=[[0,0.5],[1,0.5]];portConstraint=eastwest;top=0;left=0;right=0;bottom=0;" vertex="1" parent="Nd6j2Neas8TOyWglooFA-137">
          <mxGeometry y="60" width="215" height="30" as="geometry" />
        </mxCell>
        <mxCell id="Nd6j2Neas8TOyWglooFA-142" value="" style="shape=partialRectangle;overflow=hidden;connectable=0;fillColor=none;top=0;left=0;bottom=0;right=0;" vertex="1" parent="Nd6j2Neas8TOyWglooFA-141">
          <mxGeometry width="30" height="30" as="geometry">
            <mxRectangle width="30" height="30" as="alternateBounds" />
          </mxGeometry>
        </mxCell>
        <mxCell id="Nd6j2Neas8TOyWglooFA-143" value="fecha_inicio" style="shape=partialRectangle;overflow=hidden;connectable=0;fillColor=none;top=0;left=0;bottom=0;right=0;align=left;spacingLeft=6;" vertex="1" parent="Nd6j2Neas8TOyWglooFA-141">
          <mxGeometry x="30" width="185" height="30" as="geometry">
            <mxRectangle width="185" height="30" as="alternateBounds" />
          </mxGeometry>
        </mxCell>
        <mxCell id="Nd6j2Neas8TOyWglooFA-155" value="" style="shape=partialRectangle;collapsible=0;dropTarget=0;pointerEvents=0;fillColor=none;points=[[0,0.5],[1,0.5]];portConstraint=eastwest;top=0;left=0;right=0;bottom=0;" vertex="1" parent="Nd6j2Neas8TOyWglooFA-137">
          <mxGeometry y="90" width="215" height="30" as="geometry" />
        </mxCell>
        <mxCell id="Nd6j2Neas8TOyWglooFA-156" value="" style="shape=partialRectangle;overflow=hidden;connectable=0;fillColor=none;top=0;left=0;bottom=0;right=0;" vertex="1" parent="Nd6j2Neas8TOyWglooFA-155">
          <mxGeometry width="30" height="30" as="geometry">
            <mxRectangle width="30" height="30" as="alternateBounds" />
          </mxGeometry>
        </mxCell>
        <mxCell id="Nd6j2Neas8TOyWglooFA-157" value="fecha_fin" style="shape=partialRectangle;overflow=hidden;connectable=0;fillColor=none;top=0;left=0;bottom=0;right=0;align=left;spacingLeft=6;" vertex="1" parent="Nd6j2Neas8TOyWglooFA-155">
          <mxGeometry x="30" width="185" height="30" as="geometry">
            <mxRectangle width="185" height="30" as="alternateBounds" />
          </mxGeometry>
        </mxCell>
        <mxCell id="Nd6j2Neas8TOyWglooFA-158" value="" style="shape=partialRectangle;collapsible=0;dropTarget=0;pointerEvents=0;fillColor=none;points=[[0,0.5],[1,0.5]];portConstraint=eastwest;top=0;left=0;right=0;bottom=0;" vertex="1" parent="Nd6j2Neas8TOyWglooFA-137">
          <mxGeometry y="120" width="215" height="30" as="geometry" />
        </mxCell>
        <mxCell id="Nd6j2Neas8TOyWglooFA-159" value="" style="shape=partialRectangle;overflow=hidden;connectable=0;fillColor=none;top=0;left=0;bottom=0;right=0;" vertex="1" parent="Nd6j2Neas8TOyWglooFA-158">
          <mxGeometry width="30" height="30" as="geometry">
            <mxRectangle width="30" height="30" as="alternateBounds" />
          </mxGeometry>
        </mxCell>
        <mxCell id="Nd6j2Neas8TOyWglooFA-160" value="ganancia_total" style="shape=partialRectangle;overflow=hidden;connectable=0;fillColor=none;top=0;left=0;bottom=0;right=0;align=left;spacingLeft=6;" vertex="1" parent="Nd6j2Neas8TOyWglooFA-158">
          <mxGeometry x="30" width="185" height="30" as="geometry">
            <mxRectangle width="185" height="30" as="alternateBounds" />
          </mxGeometry>
        </mxCell>
        <mxCell id="Nd6j2Neas8TOyWglooFA-256" style="edgeStyle=orthogonalEdgeStyle;rounded=0;orthogonalLoop=1;jettySize=auto;html=1;entryX=0.5;entryY=1;entryDx=0;entryDy=0;startArrow=ERone;startFill=0;endArrow=ERmany;endFill=0;" edge="1" parent="1" source="Nd6j2Neas8TOyWglooFA-161" target="Nd6j2Neas8TOyWglooFA-47">
          <mxGeometry relative="1" as="geometry" />
        </mxCell>
        <mxCell id="Nd6j2Neas8TOyWglooFA-161" value="PrecioLibra" style="shape=table;startSize=30;container=1;collapsible=1;childLayout=tableLayout;fixedRows=1;rowLines=0;fontStyle=1;align=center;resizeLast=1;" vertex="1" parent="1">
          <mxGeometry x="-370" y="490" width="215" height="100" as="geometry" />
        </mxCell>
        <mxCell id="Nd6j2Neas8TOyWglooFA-162" value="" style="shape=partialRectangle;collapsible=0;dropTarget=0;pointerEvents=0;fillColor=none;points=[[0,0.5],[1,0.5]];portConstraint=eastwest;top=0;left=0;right=0;bottom=1;" vertex="1" parent="Nd6j2Neas8TOyWglooFA-161">
          <mxGeometry y="30" width="215" height="30" as="geometry" />
        </mxCell>
        <mxCell id="Nd6j2Neas8TOyWglooFA-163" value="PK" style="shape=partialRectangle;overflow=hidden;connectable=0;fillColor=none;top=0;left=0;bottom=0;right=0;fontStyle=1;" vertex="1" parent="Nd6j2Neas8TOyWglooFA-162">
          <mxGeometry width="30" height="30" as="geometry">
            <mxRectangle width="30" height="30" as="alternateBounds" />
          </mxGeometry>
        </mxCell>
        <mxCell id="Nd6j2Neas8TOyWglooFA-164" value="precioID" style="shape=partialRectangle;overflow=hidden;connectable=0;fillColor=none;top=0;left=0;bottom=0;right=0;align=left;spacingLeft=6;fontStyle=5;" vertex="1" parent="Nd6j2Neas8TOyWglooFA-162">
          <mxGeometry x="30" width="185" height="30" as="geometry">
            <mxRectangle width="185" height="30" as="alternateBounds" />
          </mxGeometry>
        </mxCell>
        <mxCell id="Nd6j2Neas8TOyWglooFA-165" value="" style="shape=partialRectangle;collapsible=0;dropTarget=0;pointerEvents=0;fillColor=none;points=[[0,0.5],[1,0.5]];portConstraint=eastwest;top=0;left=0;right=0;bottom=0;" vertex="1" parent="Nd6j2Neas8TOyWglooFA-161">
          <mxGeometry y="60" width="215" height="30" as="geometry" />
        </mxCell>
        <mxCell id="Nd6j2Neas8TOyWglooFA-166" value="" style="shape=partialRectangle;overflow=hidden;connectable=0;fillColor=none;top=0;left=0;bottom=0;right=0;" vertex="1" parent="Nd6j2Neas8TOyWglooFA-165">
          <mxGeometry width="30" height="30" as="geometry">
            <mxRectangle width="30" height="30" as="alternateBounds" />
          </mxGeometry>
        </mxCell>
        <mxCell id="Nd6j2Neas8TOyWglooFA-167" value="precio_libra" style="shape=partialRectangle;overflow=hidden;connectable=0;fillColor=none;top=0;left=0;bottom=0;right=0;align=left;spacingLeft=6;" vertex="1" parent="Nd6j2Neas8TOyWglooFA-165">
          <mxGeometry x="30" width="185" height="30" as="geometry">
            <mxRectangle width="185" height="30" as="alternateBounds" />
          </mxGeometry>
        </mxCell>
        <mxCell id="Nd6j2Neas8TOyWglooFA-228" value="" style="group" vertex="1" connectable="0" parent="1">
          <mxGeometry x="-267.5" y="-170" width="130" height="190" as="geometry" />
        </mxCell>
        <mxCell id="Nd6j2Neas8TOyWglooFA-33" value="FK" style="shape=partialRectangle;overflow=hidden;connectable=0;fillColor=none;top=0;left=0;bottom=0;right=0;" vertex="1" parent="Nd6j2Neas8TOyWglooFA-228">
          <mxGeometry y="150" width="30" height="30" as="geometry" />
        </mxCell>
        <mxCell id="Nd6j2Neas8TOyWglooFA-34" value="Punto_de_control" style="shape=table;startSize=30;container=1;collapsible=1;childLayout=tableLayout;fixedRows=1;rowLines=0;fontStyle=1;align=center;resizeLast=1;" vertex="1" parent="Nd6j2Neas8TOyWglooFA-228">
          <mxGeometry width="130" height="190" as="geometry" />
        </mxCell>
        <mxCell id="Nd6j2Neas8TOyWglooFA-35" value="" style="shape=partialRectangle;collapsible=0;dropTarget=0;pointerEvents=0;fillColor=none;points=[[0,0.5],[1,0.5]];portConstraint=eastwest;top=0;left=0;right=0;bottom=1;" vertex="1" parent="Nd6j2Neas8TOyWglooFA-34">
          <mxGeometry y="30" width="130" height="30" as="geometry" />
        </mxCell>
        <mxCell id="Nd6j2Neas8TOyWglooFA-36" value="PK" style="shape=partialRectangle;overflow=hidden;connectable=0;fillColor=none;top=0;left=0;bottom=0;right=0;fontStyle=1;" vertex="1" parent="Nd6j2Neas8TOyWglooFA-35">
          <mxGeometry width="30" height="30" as="geometry">
            <mxRectangle width="30" height="30" as="alternateBounds" />
          </mxGeometry>
        </mxCell>
        <mxCell id="Nd6j2Neas8TOyWglooFA-37" value="puntoID" style="shape=partialRectangle;overflow=hidden;connectable=0;fillColor=none;top=0;left=0;bottom=0;right=0;align=left;spacingLeft=6;fontStyle=5;" vertex="1" parent="Nd6j2Neas8TOyWglooFA-35">
          <mxGeometry x="30" width="100" height="30" as="geometry">
            <mxRectangle width="100" height="30" as="alternateBounds" />
          </mxGeometry>
        </mxCell>
        <mxCell id="Nd6j2Neas8TOyWglooFA-38" value="" style="shape=partialRectangle;collapsible=0;dropTarget=0;pointerEvents=0;fillColor=none;points=[[0,0.5],[1,0.5]];portConstraint=eastwest;top=0;left=0;right=0;bottom=0;" vertex="1" parent="Nd6j2Neas8TOyWglooFA-34">
          <mxGeometry y="60" width="130" height="30" as="geometry" />
        </mxCell>
        <mxCell id="Nd6j2Neas8TOyWglooFA-39" value="" style="shape=partialRectangle;overflow=hidden;connectable=0;fillColor=none;top=0;left=0;bottom=0;right=0;" vertex="1" parent="Nd6j2Neas8TOyWglooFA-38">
          <mxGeometry width="30" height="30" as="geometry">
            <mxRectangle width="30" height="30" as="alternateBounds" />
          </mxGeometry>
        </mxCell>
        <mxCell id="Nd6j2Neas8TOyWglooFA-40" value="capacidad" style="shape=partialRectangle;overflow=hidden;connectable=0;fillColor=none;top=0;left=0;bottom=0;right=0;align=left;spacingLeft=6;" vertex="1" parent="Nd6j2Neas8TOyWglooFA-38">
          <mxGeometry x="30" width="100" height="30" as="geometry">
            <mxRectangle width="100" height="30" as="alternateBounds" />
          </mxGeometry>
        </mxCell>
        <mxCell id="Nd6j2Neas8TOyWglooFA-41" value="" style="group" vertex="1" connectable="0" parent="Nd6j2Neas8TOyWglooFA-228">
          <mxGeometry x="30" y="90" width="100" height="90" as="geometry" />
        </mxCell>
        <mxCell id="Nd6j2Neas8TOyWglooFA-42" value="tarifa_operacion" style="shape=partialRectangle;overflow=hidden;connectable=0;fillColor=none;top=0;left=0;bottom=0;right=0;align=left;spacingLeft=6;" vertex="1" parent="Nd6j2Neas8TOyWglooFA-41">
          <mxGeometry width="100" height="30" as="geometry">
            <mxRectangle width="220" height="30" as="alternateBounds" />
          </mxGeometry>
        </mxCell>
        <mxCell id="Nd6j2Neas8TOyWglooFA-43" value="tarifa_propia" style="shape=partialRectangle;overflow=hidden;connectable=0;fillColor=none;top=0;left=0;bottom=0;right=0;align=left;spacingLeft=6;" vertex="1" parent="Nd6j2Neas8TOyWglooFA-41">
          <mxGeometry y="30" width="100" height="30" as="geometry">
            <mxRectangle width="220" height="30" as="alternateBounds" />
          </mxGeometry>
        </mxCell>
        <mxCell id="Nd6j2Neas8TOyWglooFA-44" value="rutaID" style="shape=partialRectangle;overflow=hidden;connectable=0;fillColor=none;top=0;left=0;bottom=0;right=0;align=left;spacingLeft=6;" vertex="1" parent="Nd6j2Neas8TOyWglooFA-41">
          <mxGeometry y="60" width="100" height="30" as="geometry">
            <mxRectangle width="220" height="30" as="alternateBounds" />
          </mxGeometry>
        </mxCell>
        <mxCell id="Nd6j2Neas8TOyWglooFA-45" value="" style="endArrow=none;html=1;rounded=0;entryX=0.121;entryY=0.973;entryDx=0;entryDy=0;entryPerimeter=0;" edge="1" parent="Nd6j2Neas8TOyWglooFA-41">
          <mxGeometry width="50" height="50" relative="1" as="geometry">
            <mxPoint y="90" as="sourcePoint" />
            <mxPoint as="targetPoint" />
          </mxGeometry>
        </mxCell>
        <mxCell id="Nd6j2Neas8TOyWglooFA-229" value="" style="group" vertex="1" connectable="0" parent="1">
          <mxGeometry x="-170" y="110" width="140" height="250" as="geometry" />
        </mxCell>
        <mxCell id="Nd6j2Neas8TOyWglooFA-46" value="FK" style="shape=partialRectangle;overflow=hidden;connectable=0;fillColor=none;top=0;left=0;bottom=0;right=0;" vertex="1" parent="Nd6j2Neas8TOyWglooFA-229">
          <mxGeometry y="180" width="30" height="30" as="geometry" />
        </mxCell>
        <mxCell id="Nd6j2Neas8TOyWglooFA-47" value="Paquete" style="shape=table;startSize=30;container=1;collapsible=1;childLayout=tableLayout;fixedRows=1;rowLines=0;fontStyle=1;align=center;resizeLast=1;" vertex="1" parent="Nd6j2Neas8TOyWglooFA-229">
          <mxGeometry width="140" height="250" as="geometry" />
        </mxCell>
        <mxCell id="Nd6j2Neas8TOyWglooFA-48" value="" style="shape=partialRectangle;collapsible=0;dropTarget=0;pointerEvents=0;fillColor=none;points=[[0,0.5],[1,0.5]];portConstraint=eastwest;top=0;left=0;right=0;bottom=1;" vertex="1" parent="Nd6j2Neas8TOyWglooFA-47">
          <mxGeometry y="30" width="140" height="30" as="geometry" />
        </mxCell>
        <mxCell id="Nd6j2Neas8TOyWglooFA-49" value="PK" style="shape=partialRectangle;overflow=hidden;connectable=0;fillColor=none;top=0;left=0;bottom=0;right=0;fontStyle=1;" vertex="1" parent="Nd6j2Neas8TOyWglooFA-48">
          <mxGeometry width="30" height="30" as="geometry">
            <mxRectangle width="30" height="30" as="alternateBounds" />
          </mxGeometry>
        </mxCell>
        <mxCell id="Nd6j2Neas8TOyWglooFA-50" value="paqueteID" style="shape=partialRectangle;overflow=hidden;connectable=0;fillColor=none;top=0;left=0;bottom=0;right=0;align=left;spacingLeft=6;fontStyle=5;" vertex="1" parent="Nd6j2Neas8TOyWglooFA-48">
          <mxGeometry x="30" width="110" height="30" as="geometry">
            <mxRectangle width="110" height="30" as="alternateBounds" />
          </mxGeometry>
        </mxCell>
        <mxCell id="Nd6j2Neas8TOyWglooFA-51" value="" style="shape=partialRectangle;collapsible=0;dropTarget=0;pointerEvents=0;fillColor=none;points=[[0,0.5],[1,0.5]];portConstraint=eastwest;top=0;left=0;right=0;bottom=0;" vertex="1" parent="Nd6j2Neas8TOyWglooFA-47">
          <mxGeometry y="60" width="140" height="30" as="geometry" />
        </mxCell>
        <mxCell id="Nd6j2Neas8TOyWglooFA-52" value="" style="shape=partialRectangle;overflow=hidden;connectable=0;fillColor=none;top=0;left=0;bottom=0;right=0;" vertex="1" parent="Nd6j2Neas8TOyWglooFA-51">
          <mxGeometry width="30" height="30" as="geometry">
            <mxRectangle width="30" height="30" as="alternateBounds" />
          </mxGeometry>
        </mxCell>
        <mxCell id="Nd6j2Neas8TOyWglooFA-53" value="peso" style="shape=partialRectangle;overflow=hidden;connectable=0;fillColor=none;top=0;left=0;bottom=0;right=0;align=left;spacingLeft=6;" vertex="1" parent="Nd6j2Neas8TOyWglooFA-51">
          <mxGeometry x="30" width="110" height="30" as="geometry">
            <mxRectangle width="110" height="30" as="alternateBounds" />
          </mxGeometry>
        </mxCell>
        <mxCell id="Nd6j2Neas8TOyWglooFA-55" value="costo" style="shape=partialRectangle;overflow=hidden;connectable=0;fillColor=none;top=0;left=0;bottom=0;right=0;align=left;spacingLeft=6;" vertex="1" parent="Nd6j2Neas8TOyWglooFA-229">
          <mxGeometry x="29" y="90" width="110.00000000000001" height="30" as="geometry">
            <mxRectangle width="220" height="30" as="alternateBounds" />
          </mxGeometry>
        </mxCell>
        <mxCell id="Nd6j2Neas8TOyWglooFA-56" value="estado" style="shape=partialRectangle;overflow=hidden;connectable=0;fillColor=none;top=0;left=0;bottom=0;right=0;align=left;spacingLeft=6;" vertex="1" parent="Nd6j2Neas8TOyWglooFA-229">
          <mxGeometry x="29" y="120" width="110.00000000000001" height="30" as="geometry">
            <mxRectangle width="220" height="30" as="alternateBounds" />
          </mxGeometry>
        </mxCell>
        <mxCell id="Nd6j2Neas8TOyWglooFA-57" value="tiempo_en_control" style="shape=partialRectangle;overflow=hidden;connectable=0;fillColor=none;top=0;left=0;bottom=0;right=0;align=left;spacingLeft=6;" vertex="1" parent="Nd6j2Neas8TOyWglooFA-229">
          <mxGeometry x="29" y="150" width="110.00000000000001" height="30" as="geometry">
            <mxRectangle width="220" height="30" as="alternateBounds" />
          </mxGeometry>
        </mxCell>
        <mxCell id="Nd6j2Neas8TOyWglooFA-58" value="" style="endArrow=none;html=1;rounded=0;entryX=0.121;entryY=0.973;entryDx=0;entryDy=0;entryPerimeter=0;" edge="1" parent="Nd6j2Neas8TOyWglooFA-229">
          <mxGeometry width="50" height="50" relative="1" as="geometry">
            <mxPoint x="30" y="230" as="sourcePoint" />
            <mxPoint x="30" y="90" as="targetPoint" />
          </mxGeometry>
        </mxCell>
        <mxCell id="Nd6j2Neas8TOyWglooFA-59" value="clienteID" style="shape=partialRectangle;overflow=hidden;connectable=0;fillColor=none;top=0;left=0;bottom=0;right=0;align=left;spacingLeft=6;" vertex="1" parent="Nd6j2Neas8TOyWglooFA-229">
          <mxGeometry x="29" y="180" width="110.00000000000001" height="30" as="geometry">
            <mxRectangle width="220" height="30" as="alternateBounds" />
          </mxGeometry>
        </mxCell>
        <mxCell id="Nd6j2Neas8TOyWglooFA-60" value="puntoID" style="shape=partialRectangle;overflow=hidden;connectable=0;fillColor=none;top=0;left=0;bottom=0;right=0;align=left;spacingLeft=6;" vertex="1" parent="Nd6j2Neas8TOyWglooFA-229">
          <mxGeometry x="28" y="209" width="110.00000000000001" height="30" as="geometry">
            <mxRectangle width="220" height="30" as="alternateBounds" />
          </mxGeometry>
        </mxCell>
        <mxCell id="Nd6j2Neas8TOyWglooFA-61" value="FK" style="shape=partialRectangle;overflow=hidden;connectable=0;fillColor=none;top=0;left=0;bottom=0;right=0;" vertex="1" parent="Nd6j2Neas8TOyWglooFA-229">
          <mxGeometry y="209" width="30" height="30" as="geometry" />
        </mxCell>
        <mxCell id="Nd6j2Neas8TOyWglooFA-230" value="" style="group" vertex="1" connectable="0" parent="1">
          <mxGeometry x="99" y="310" width="191" height="180" as="geometry" />
        </mxCell>
        <mxCell id="Nd6j2Neas8TOyWglooFA-62" value="FK" style="shape=partialRectangle;overflow=hidden;connectable=0;fillColor=none;top=0;left=0;bottom=0;right=0;" vertex="1" parent="Nd6j2Neas8TOyWglooFA-230">
          <mxGeometry y="60" width="30" height="30" as="geometry" />
        </mxCell>
        <mxCell id="Nd6j2Neas8TOyWglooFA-63" value="ReporteRuta" style="shape=table;startSize=30;container=1;collapsible=1;childLayout=tableLayout;fixedRows=1;rowLines=0;fontStyle=1;align=center;resizeLast=1;" vertex="1" parent="Nd6j2Neas8TOyWglooFA-230">
          <mxGeometry x="1" width="190" height="180" as="geometry" />
        </mxCell>
        <mxCell id="Nd6j2Neas8TOyWglooFA-64" value="" style="shape=partialRectangle;collapsible=0;dropTarget=0;pointerEvents=0;fillColor=none;points=[[0,0.5],[1,0.5]];portConstraint=eastwest;top=0;left=0;right=0;bottom=1;" vertex="1" parent="Nd6j2Neas8TOyWglooFA-63">
          <mxGeometry y="30" width="190" height="30" as="geometry" />
        </mxCell>
        <mxCell id="Nd6j2Neas8TOyWglooFA-65" value="PK" style="shape=partialRectangle;overflow=hidden;connectable=0;fillColor=none;top=0;left=0;bottom=0;right=0;fontStyle=1;" vertex="1" parent="Nd6j2Neas8TOyWglooFA-64">
          <mxGeometry width="30" height="30" as="geometry">
            <mxRectangle width="30" height="30" as="alternateBounds" />
          </mxGeometry>
        </mxCell>
        <mxCell id="Nd6j2Neas8TOyWglooFA-66" value="reporteID" style="shape=partialRectangle;overflow=hidden;connectable=0;fillColor=none;top=0;left=0;bottom=0;right=0;align=left;spacingLeft=6;fontStyle=5;" vertex="1" parent="Nd6j2Neas8TOyWglooFA-64">
          <mxGeometry x="30" width="160" height="30" as="geometry">
            <mxRectangle width="160" height="30" as="alternateBounds" />
          </mxGeometry>
        </mxCell>
        <mxCell id="Nd6j2Neas8TOyWglooFA-67" value="" style="shape=partialRectangle;collapsible=0;dropTarget=0;pointerEvents=0;fillColor=none;points=[[0,0.5],[1,0.5]];portConstraint=eastwest;top=0;left=0;right=0;bottom=0;" vertex="1" parent="Nd6j2Neas8TOyWglooFA-63">
          <mxGeometry y="60" width="190" height="30" as="geometry" />
        </mxCell>
        <mxCell id="Nd6j2Neas8TOyWglooFA-68" value="" style="shape=partialRectangle;overflow=hidden;connectable=0;fillColor=none;top=0;left=0;bottom=0;right=0;" vertex="1" parent="Nd6j2Neas8TOyWglooFA-67">
          <mxGeometry width="30" height="30" as="geometry">
            <mxRectangle width="30" height="30" as="alternateBounds" />
          </mxGeometry>
        </mxCell>
        <mxCell id="Nd6j2Neas8TOyWglooFA-69" value="rutaID" style="shape=partialRectangle;overflow=hidden;connectable=0;fillColor=none;top=0;left=0;bottom=0;right=0;align=left;spacingLeft=6;" vertex="1" parent="Nd6j2Neas8TOyWglooFA-67">
          <mxGeometry x="30" width="160" height="30" as="geometry">
            <mxRectangle width="160" height="30" as="alternateBounds" />
          </mxGeometry>
        </mxCell>
        <mxCell id="Nd6j2Neas8TOyWglooFA-70" value="estado_ruta" style="shape=partialRectangle;overflow=hidden;connectable=0;fillColor=none;top=0;left=0;bottom=0;right=0;align=left;spacingLeft=6;" vertex="1" parent="Nd6j2Neas8TOyWglooFA-230">
          <mxGeometry x="30" y="90" width="110.00000000000001" height="30" as="geometry">
            <mxRectangle width="220" height="30" as="alternateBounds" />
          </mxGeometry>
        </mxCell>
        <mxCell id="Nd6j2Neas8TOyWglooFA-71" value="cantidad_paquetes_ruta" style="shape=partialRectangle;overflow=hidden;connectable=0;fillColor=none;top=0;left=0;bottom=0;right=0;align=left;spacingLeft=6;" vertex="1" parent="Nd6j2Neas8TOyWglooFA-230">
          <mxGeometry x="30" y="120" width="161" height="30" as="geometry">
            <mxRectangle width="220" height="30" as="alternateBounds" />
          </mxGeometry>
        </mxCell>
        <mxCell id="Nd6j2Neas8TOyWglooFA-72" value="cantidad_paquetes_salidos" style="shape=partialRectangle;overflow=hidden;connectable=0;fillColor=none;top=0;left=0;bottom=0;right=0;align=left;spacingLeft=6;" vertex="1" parent="Nd6j2Neas8TOyWglooFA-230">
          <mxGeometry x="30" y="150" width="110.00000000000001" height="30" as="geometry">
            <mxRectangle width="220" height="30" as="alternateBounds" />
          </mxGeometry>
        </mxCell>
        <mxCell id="Nd6j2Neas8TOyWglooFA-73" value="" style="endArrow=none;html=1;rounded=0;entryX=0.121;entryY=0.973;entryDx=0;entryDy=0;entryPerimeter=0;" edge="1" parent="Nd6j2Neas8TOyWglooFA-230">
          <mxGeometry width="50" height="50" relative="1" as="geometry">
            <mxPoint x="31" y="170" as="sourcePoint" />
            <mxPoint x="31" y="90" as="targetPoint" />
          </mxGeometry>
        </mxCell>
        <mxCell id="Nd6j2Neas8TOyWglooFA-231" value="" style="group" vertex="1" connectable="0" parent="1">
          <mxGeometry x="359" y="-690" width="216" height="180" as="geometry" />
        </mxCell>
        <mxCell id="Nd6j2Neas8TOyWglooFA-89" value="FK" style="shape=partialRectangle;overflow=hidden;connectable=0;fillColor=none;top=0;left=0;bottom=0;right=0;" vertex="1" parent="Nd6j2Neas8TOyWglooFA-231">
          <mxGeometry y="60" width="30" height="30" as="geometry" />
        </mxCell>
        <mxCell id="Nd6j2Neas8TOyWglooFA-90" value="ReporteClientes" style="shape=table;startSize=30;container=1;collapsible=1;childLayout=tableLayout;fixedRows=1;rowLines=0;fontStyle=1;align=center;resizeLast=1;" vertex="1" parent="Nd6j2Neas8TOyWglooFA-231">
          <mxGeometry x="1" width="215" height="180" as="geometry" />
        </mxCell>
        <mxCell id="Nd6j2Neas8TOyWglooFA-91" value="" style="shape=partialRectangle;collapsible=0;dropTarget=0;pointerEvents=0;fillColor=none;points=[[0,0.5],[1,0.5]];portConstraint=eastwest;top=0;left=0;right=0;bottom=1;" vertex="1" parent="Nd6j2Neas8TOyWglooFA-90">
          <mxGeometry y="30" width="215" height="30" as="geometry" />
        </mxCell>
        <mxCell id="Nd6j2Neas8TOyWglooFA-92" value="PK" style="shape=partialRectangle;overflow=hidden;connectable=0;fillColor=none;top=0;left=0;bottom=0;right=0;fontStyle=1;" vertex="1" parent="Nd6j2Neas8TOyWglooFA-91">
          <mxGeometry width="30" height="30" as="geometry">
            <mxRectangle width="30" height="30" as="alternateBounds" />
          </mxGeometry>
        </mxCell>
        <mxCell id="Nd6j2Neas8TOyWglooFA-93" value="reporteID" style="shape=partialRectangle;overflow=hidden;connectable=0;fillColor=none;top=0;left=0;bottom=0;right=0;align=left;spacingLeft=6;fontStyle=5;" vertex="1" parent="Nd6j2Neas8TOyWglooFA-91">
          <mxGeometry x="30" width="185" height="30" as="geometry">
            <mxRectangle width="185" height="30" as="alternateBounds" />
          </mxGeometry>
        </mxCell>
        <mxCell id="Nd6j2Neas8TOyWglooFA-94" value="" style="shape=partialRectangle;collapsible=0;dropTarget=0;pointerEvents=0;fillColor=none;points=[[0,0.5],[1,0.5]];portConstraint=eastwest;top=0;left=0;right=0;bottom=0;" vertex="1" parent="Nd6j2Neas8TOyWglooFA-90">
          <mxGeometry y="60" width="215" height="30" as="geometry" />
        </mxCell>
        <mxCell id="Nd6j2Neas8TOyWglooFA-95" value="" style="shape=partialRectangle;overflow=hidden;connectable=0;fillColor=none;top=0;left=0;bottom=0;right=0;" vertex="1" parent="Nd6j2Neas8TOyWglooFA-94">
          <mxGeometry width="30" height="30" as="geometry">
            <mxRectangle width="30" height="30" as="alternateBounds" />
          </mxGeometry>
        </mxCell>
        <mxCell id="Nd6j2Neas8TOyWglooFA-96" value="clienteID" style="shape=partialRectangle;overflow=hidden;connectable=0;fillColor=none;top=0;left=0;bottom=0;right=0;align=left;spacingLeft=6;" vertex="1" parent="Nd6j2Neas8TOyWglooFA-94">
          <mxGeometry x="30" width="185" height="30" as="geometry">
            <mxRectangle width="185" height="30" as="alternateBounds" />
          </mxGeometry>
        </mxCell>
        <mxCell id="Nd6j2Neas8TOyWglooFA-97" value="cantidad_paquetes_entregados" style="shape=partialRectangle;overflow=hidden;connectable=0;fillColor=none;top=0;left=0;bottom=0;right=0;align=left;spacingLeft=6;" vertex="1" parent="Nd6j2Neas8TOyWglooFA-231">
          <mxGeometry x="30" y="90" width="186" height="30" as="geometry">
            <mxRectangle width="220" height="30" as="alternateBounds" />
          </mxGeometry>
        </mxCell>
        <mxCell id="Nd6j2Neas8TOyWglooFA-98" value="costo_total_paquetes" style="shape=partialRectangle;overflow=hidden;connectable=0;fillColor=none;top=0;left=0;bottom=0;right=0;align=left;spacingLeft=6;" vertex="1" parent="Nd6j2Neas8TOyWglooFA-231">
          <mxGeometry x="30" y="120" width="161" height="30" as="geometry">
            <mxRectangle width="220" height="30" as="alternateBounds" />
          </mxGeometry>
        </mxCell>
        <mxCell id="Nd6j2Neas8TOyWglooFA-99" value="ingreso_total_paquetes" style="shape=partialRectangle;overflow=hidden;connectable=0;fillColor=none;top=0;left=0;bottom=0;right=0;align=left;spacingLeft=6;" vertex="1" parent="Nd6j2Neas8TOyWglooFA-231">
          <mxGeometry x="30" y="150" width="146" height="30" as="geometry">
            <mxRectangle width="220" height="30" as="alternateBounds" />
          </mxGeometry>
        </mxCell>
        <mxCell id="Nd6j2Neas8TOyWglooFA-100" value="" style="endArrow=none;html=1;rounded=0;entryX=0.121;entryY=0.973;entryDx=0;entryDy=0;entryPerimeter=0;" edge="1" parent="Nd6j2Neas8TOyWglooFA-231">
          <mxGeometry width="50" height="50" relative="1" as="geometry">
            <mxPoint x="31" y="170" as="sourcePoint" />
            <mxPoint x="31" y="90" as="targetPoint" />
          </mxGeometry>
        </mxCell>
        <mxCell id="Nd6j2Neas8TOyWglooFA-232" value="" style="group" vertex="1" connectable="0" parent="1">
          <mxGeometry x="-500" y="-420" width="191" height="180" as="geometry" />
        </mxCell>
        <mxCell id="Nd6j2Neas8TOyWglooFA-77" value="FK" style="shape=partialRectangle;overflow=hidden;connectable=0;fillColor=none;top=0;left=0;bottom=0;right=0;" vertex="1" parent="Nd6j2Neas8TOyWglooFA-232">
          <mxGeometry y="60" width="30" height="30" as="geometry" />
        </mxCell>
        <mxCell id="Nd6j2Neas8TOyWglooFA-78" value="ReporteGanancias" style="shape=table;startSize=30;container=1;collapsible=1;childLayout=tableLayout;fixedRows=1;rowLines=0;fontStyle=1;align=center;resizeLast=1;" vertex="1" parent="Nd6j2Neas8TOyWglooFA-232">
          <mxGeometry x="1" width="190" height="180" as="geometry" />
        </mxCell>
        <mxCell id="Nd6j2Neas8TOyWglooFA-79" value="" style="shape=partialRectangle;collapsible=0;dropTarget=0;pointerEvents=0;fillColor=none;points=[[0,0.5],[1,0.5]];portConstraint=eastwest;top=0;left=0;right=0;bottom=1;" vertex="1" parent="Nd6j2Neas8TOyWglooFA-78">
          <mxGeometry y="30" width="190" height="30" as="geometry" />
        </mxCell>
        <mxCell id="Nd6j2Neas8TOyWglooFA-80" value="PK" style="shape=partialRectangle;overflow=hidden;connectable=0;fillColor=none;top=0;left=0;bottom=0;right=0;fontStyle=1;" vertex="1" parent="Nd6j2Neas8TOyWglooFA-79">
          <mxGeometry width="30" height="30" as="geometry">
            <mxRectangle width="30" height="30" as="alternateBounds" />
          </mxGeometry>
        </mxCell>
        <mxCell id="Nd6j2Neas8TOyWglooFA-81" value="reporteID" style="shape=partialRectangle;overflow=hidden;connectable=0;fillColor=none;top=0;left=0;bottom=0;right=0;align=left;spacingLeft=6;fontStyle=5;" vertex="1" parent="Nd6j2Neas8TOyWglooFA-79">
          <mxGeometry x="30" width="160" height="30" as="geometry">
            <mxRectangle width="160" height="30" as="alternateBounds" />
          </mxGeometry>
        </mxCell>
        <mxCell id="Nd6j2Neas8TOyWglooFA-82" value="" style="shape=partialRectangle;collapsible=0;dropTarget=0;pointerEvents=0;fillColor=none;points=[[0,0.5],[1,0.5]];portConstraint=eastwest;top=0;left=0;right=0;bottom=0;" vertex="1" parent="Nd6j2Neas8TOyWglooFA-78">
          <mxGeometry y="60" width="190" height="30" as="geometry" />
        </mxCell>
        <mxCell id="Nd6j2Neas8TOyWglooFA-83" value="" style="shape=partialRectangle;overflow=hidden;connectable=0;fillColor=none;top=0;left=0;bottom=0;right=0;" vertex="1" parent="Nd6j2Neas8TOyWglooFA-82">
          <mxGeometry width="30" height="30" as="geometry">
            <mxRectangle width="30" height="30" as="alternateBounds" />
          </mxGeometry>
        </mxCell>
        <mxCell id="Nd6j2Neas8TOyWglooFA-84" value="rutaID" style="shape=partialRectangle;overflow=hidden;connectable=0;fillColor=none;top=0;left=0;bottom=0;right=0;align=left;spacingLeft=6;" vertex="1" parent="Nd6j2Neas8TOyWglooFA-82">
          <mxGeometry x="30" width="160" height="30" as="geometry">
            <mxRectangle width="160" height="30" as="alternateBounds" />
          </mxGeometry>
        </mxCell>
        <mxCell id="Nd6j2Neas8TOyWglooFA-85" value="costo_ruta" style="shape=partialRectangle;overflow=hidden;connectable=0;fillColor=none;top=0;left=0;bottom=0;right=0;align=left;spacingLeft=6;" vertex="1" parent="Nd6j2Neas8TOyWglooFA-232">
          <mxGeometry x="30" y="90" width="110.00000000000001" height="30" as="geometry">
            <mxRectangle width="220" height="30" as="alternateBounds" />
          </mxGeometry>
        </mxCell>
        <mxCell id="Nd6j2Neas8TOyWglooFA-86" value="ingreso_ruta" style="shape=partialRectangle;overflow=hidden;connectable=0;fillColor=none;top=0;left=0;bottom=0;right=0;align=left;spacingLeft=6;" vertex="1" parent="Nd6j2Neas8TOyWglooFA-232">
          <mxGeometry x="30" y="120" width="161" height="30" as="geometry">
            <mxRectangle width="220" height="30" as="alternateBounds" />
          </mxGeometry>
        </mxCell>
        <mxCell id="Nd6j2Neas8TOyWglooFA-87" value="ganancia_ruta" style="shape=partialRectangle;overflow=hidden;connectable=0;fillColor=none;top=0;left=0;bottom=0;right=0;align=left;spacingLeft=6;" vertex="1" parent="Nd6j2Neas8TOyWglooFA-232">
          <mxGeometry x="30" y="150" width="110.00000000000001" height="30" as="geometry">
            <mxRectangle width="220" height="30" as="alternateBounds" />
          </mxGeometry>
        </mxCell>
        <mxCell id="Nd6j2Neas8TOyWglooFA-88" value="" style="endArrow=none;html=1;rounded=0;entryX=0.121;entryY=0.973;entryDx=0;entryDy=0;entryPerimeter=0;" edge="1" parent="Nd6j2Neas8TOyWglooFA-232">
          <mxGeometry width="50" height="50" relative="1" as="geometry">
            <mxPoint x="31" y="170" as="sourcePoint" />
            <mxPoint x="31" y="90" as="targetPoint" />
          </mxGeometry>
        </mxCell>
        <mxCell id="Nd6j2Neas8TOyWglooFA-233" value="" style="group" vertex="1" connectable="0" parent="1">
          <mxGeometry x="-110" y="-470" width="140" height="220" as="geometry" />
        </mxCell>
        <mxCell id="C-vyLk0tnHw3VtMMgP7b-23" value="Usuario" style="shape=table;startSize=30;container=1;collapsible=1;childLayout=tableLayout;fixedRows=1;rowLines=0;fontStyle=1;align=center;resizeLast=1;" parent="Nd6j2Neas8TOyWglooFA-233" vertex="1">
          <mxGeometry width="140" height="220" as="geometry" />
        </mxCell>
        <mxCell id="C-vyLk0tnHw3VtMMgP7b-24" value="" style="shape=partialRectangle;collapsible=0;dropTarget=0;pointerEvents=0;fillColor=none;points=[[0,0.5],[1,0.5]];portConstraint=eastwest;top=0;left=0;right=0;bottom=1;" parent="C-vyLk0tnHw3VtMMgP7b-23" vertex="1">
          <mxGeometry y="30" width="140" height="30" as="geometry" />
        </mxCell>
        <mxCell id="C-vyLk0tnHw3VtMMgP7b-25" value="PK" style="shape=partialRectangle;overflow=hidden;connectable=0;fillColor=none;top=0;left=0;bottom=0;right=0;fontStyle=1;" parent="C-vyLk0tnHw3VtMMgP7b-24" vertex="1">
          <mxGeometry width="30" height="30" as="geometry">
            <mxRectangle width="30" height="30" as="alternateBounds" />
          </mxGeometry>
        </mxCell>
        <mxCell id="C-vyLk0tnHw3VtMMgP7b-26" value="usuarioID" style="shape=partialRectangle;overflow=hidden;connectable=0;fillColor=none;top=0;left=0;bottom=0;right=0;align=left;spacingLeft=6;fontStyle=5;" parent="C-vyLk0tnHw3VtMMgP7b-24" vertex="1">
          <mxGeometry x="30" width="110" height="30" as="geometry">
            <mxRectangle width="110" height="30" as="alternateBounds" />
          </mxGeometry>
        </mxCell>
        <mxCell id="C-vyLk0tnHw3VtMMgP7b-27" value="" style="shape=partialRectangle;collapsible=0;dropTarget=0;pointerEvents=0;fillColor=none;points=[[0,0.5],[1,0.5]];portConstraint=eastwest;top=0;left=0;right=0;bottom=0;" parent="C-vyLk0tnHw3VtMMgP7b-23" vertex="1">
          <mxGeometry y="60" width="140" height="30" as="geometry" />
        </mxCell>
        <mxCell id="C-vyLk0tnHw3VtMMgP7b-28" value="" style="shape=partialRectangle;overflow=hidden;connectable=0;fillColor=none;top=0;left=0;bottom=0;right=0;" parent="C-vyLk0tnHw3VtMMgP7b-27" vertex="1">
          <mxGeometry width="30" height="30" as="geometry">
            <mxRectangle width="30" height="30" as="alternateBounds" />
          </mxGeometry>
        </mxCell>
        <mxCell id="C-vyLk0tnHw3VtMMgP7b-29" value="nombre" style="shape=partialRectangle;overflow=hidden;connectable=0;fillColor=none;top=0;left=0;bottom=0;right=0;align=left;spacingLeft=6;" parent="C-vyLk0tnHw3VtMMgP7b-27" vertex="1">
          <mxGeometry x="30" width="110" height="30" as="geometry">
            <mxRectangle width="110" height="30" as="alternateBounds" />
          </mxGeometry>
        </mxCell>
        <mxCell id="Nd6j2Neas8TOyWglooFA-5" value="" style="endArrow=none;html=1;rounded=0;entryX=0.121;entryY=0.973;entryDx=0;entryDy=0;entryPerimeter=0;" edge="1" parent="Nd6j2Neas8TOyWglooFA-233">
          <mxGeometry width="50" height="50" relative="1" as="geometry">
            <mxPoint x="29.75" y="200.81" as="sourcePoint" />
            <mxPoint x="30" y="90" as="targetPoint" />
          </mxGeometry>
        </mxCell>
        <mxCell id="Nd6j2Neas8TOyWglooFA-1" value="correo" style="shape=partialRectangle;overflow=hidden;connectable=0;fillColor=none;top=0;left=0;bottom=0;right=0;align=left;spacingLeft=6;" vertex="1" parent="Nd6j2Neas8TOyWglooFA-233">
          <mxGeometry x="30" y="90" width="100" height="30" as="geometry">
            <mxRectangle width="220" height="30" as="alternateBounds" />
          </mxGeometry>
        </mxCell>
        <mxCell id="Nd6j2Neas8TOyWglooFA-2" value="telefono" style="shape=partialRectangle;overflow=hidden;connectable=0;fillColor=none;top=0;left=0;bottom=0;right=0;align=left;spacingLeft=6;" vertex="1" parent="Nd6j2Neas8TOyWglooFA-233">
          <mxGeometry x="30" y="120" width="100" height="30" as="geometry">
            <mxRectangle width="220" height="30" as="alternateBounds" />
          </mxGeometry>
        </mxCell>
        <mxCell id="Nd6j2Neas8TOyWglooFA-3" value="contraseña" style="shape=partialRectangle;overflow=hidden;connectable=0;fillColor=none;top=0;left=0;bottom=0;right=0;align=left;spacingLeft=6;" vertex="1" parent="Nd6j2Neas8TOyWglooFA-233">
          <mxGeometry x="30" y="150" width="100" height="30" as="geometry">
            <mxRectangle width="220" height="30" as="alternateBounds" />
          </mxGeometry>
        </mxCell>
        <mxCell id="Nd6j2Neas8TOyWglooFA-4" value="rol" style="shape=partialRectangle;overflow=hidden;connectable=0;fillColor=none;top=0;left=0;bottom=0;right=0;align=left;spacingLeft=6;" vertex="1" parent="Nd6j2Neas8TOyWglooFA-233">
          <mxGeometry x="30" y="180" width="100" height="30" as="geometry">
            <mxRectangle width="220" height="30" as="alternateBounds" />
          </mxGeometry>
        </mxCell>
        <mxCell id="Nd6j2Neas8TOyWglooFA-234" value="" style="group" vertex="1" connectable="0" parent="1">
          <mxGeometry x="180" y="-455" width="130" height="190" as="geometry" />
        </mxCell>
        <mxCell id="Nd6j2Neas8TOyWglooFA-7" value="Cliente" style="shape=table;startSize=30;container=1;collapsible=1;childLayout=tableLayout;fixedRows=1;rowLines=0;fontStyle=1;align=center;resizeLast=1;" vertex="1" parent="Nd6j2Neas8TOyWglooFA-234">
          <mxGeometry width="130" height="190" as="geometry" />
        </mxCell>
        <mxCell id="Nd6j2Neas8TOyWglooFA-8" value="" style="shape=partialRectangle;collapsible=0;dropTarget=0;pointerEvents=0;fillColor=none;points=[[0,0.5],[1,0.5]];portConstraint=eastwest;top=0;left=0;right=0;bottom=1;" vertex="1" parent="Nd6j2Neas8TOyWglooFA-7">
          <mxGeometry y="30" width="130" height="30" as="geometry" />
        </mxCell>
        <mxCell id="Nd6j2Neas8TOyWglooFA-9" value="PK" style="shape=partialRectangle;overflow=hidden;connectable=0;fillColor=none;top=0;left=0;bottom=0;right=0;fontStyle=1;" vertex="1" parent="Nd6j2Neas8TOyWglooFA-8">
          <mxGeometry width="30" height="30" as="geometry">
            <mxRectangle width="30" height="30" as="alternateBounds" />
          </mxGeometry>
        </mxCell>
        <mxCell id="Nd6j2Neas8TOyWglooFA-10" value="clienteID" style="shape=partialRectangle;overflow=hidden;connectable=0;fillColor=none;top=0;left=0;bottom=0;right=0;align=left;spacingLeft=6;fontStyle=5;" vertex="1" parent="Nd6j2Neas8TOyWglooFA-8">
          <mxGeometry x="30" width="100" height="30" as="geometry">
            <mxRectangle width="100" height="30" as="alternateBounds" />
          </mxGeometry>
        </mxCell>
        <mxCell id="Nd6j2Neas8TOyWglooFA-11" value="" style="shape=partialRectangle;collapsible=0;dropTarget=0;pointerEvents=0;fillColor=none;points=[[0,0.5],[1,0.5]];portConstraint=eastwest;top=0;left=0;right=0;bottom=0;" vertex="1" parent="Nd6j2Neas8TOyWglooFA-7">
          <mxGeometry y="60" width="130" height="30" as="geometry" />
        </mxCell>
        <mxCell id="Nd6j2Neas8TOyWglooFA-12" value="" style="shape=partialRectangle;overflow=hidden;connectable=0;fillColor=none;top=0;left=0;bottom=0;right=0;" vertex="1" parent="Nd6j2Neas8TOyWglooFA-11">
          <mxGeometry width="30" height="30" as="geometry">
            <mxRectangle width="30" height="30" as="alternateBounds" />
          </mxGeometry>
        </mxCell>
        <mxCell id="Nd6j2Neas8TOyWglooFA-13" value="nombre" style="shape=partialRectangle;overflow=hidden;connectable=0;fillColor=none;top=0;left=0;bottom=0;right=0;align=left;spacingLeft=6;" vertex="1" parent="Nd6j2Neas8TOyWglooFA-11">
          <mxGeometry x="30" width="100" height="30" as="geometry">
            <mxRectangle width="100" height="30" as="alternateBounds" />
          </mxGeometry>
        </mxCell>
        <mxCell id="Nd6j2Neas8TOyWglooFA-20" value="" style="group" vertex="1" connectable="0" parent="Nd6j2Neas8TOyWglooFA-234">
          <mxGeometry x="30" y="90" width="100" height="90" as="geometry" />
        </mxCell>
        <mxCell id="Nd6j2Neas8TOyWglooFA-14" value="nit" style="shape=partialRectangle;overflow=hidden;connectable=0;fillColor=none;top=0;left=0;bottom=0;right=0;align=left;spacingLeft=6;" vertex="1" parent="Nd6j2Neas8TOyWglooFA-20">
          <mxGeometry width="100" height="30" as="geometry">
            <mxRectangle width="220" height="30" as="alternateBounds" />
          </mxGeometry>
        </mxCell>
        <mxCell id="Nd6j2Neas8TOyWglooFA-15" value="direccion" style="shape=partialRectangle;overflow=hidden;connectable=0;fillColor=none;top=0;left=0;bottom=0;right=0;align=left;spacingLeft=6;" vertex="1" parent="Nd6j2Neas8TOyWglooFA-20">
          <mxGeometry y="30" width="100" height="30" as="geometry">
            <mxRectangle width="220" height="30" as="alternateBounds" />
          </mxGeometry>
        </mxCell>
        <mxCell id="Nd6j2Neas8TOyWglooFA-16" value="telefono" style="shape=partialRectangle;overflow=hidden;connectable=0;fillColor=none;top=0;left=0;bottom=0;right=0;align=left;spacingLeft=6;" vertex="1" parent="Nd6j2Neas8TOyWglooFA-20">
          <mxGeometry y="60" width="100" height="30" as="geometry">
            <mxRectangle width="220" height="30" as="alternateBounds" />
          </mxGeometry>
        </mxCell>
        <mxCell id="Nd6j2Neas8TOyWglooFA-18" value="" style="endArrow=none;html=1;rounded=0;entryX=0.121;entryY=0.973;entryDx=0;entryDy=0;entryPerimeter=0;" edge="1" parent="Nd6j2Neas8TOyWglooFA-20">
          <mxGeometry width="50" height="50" relative="1" as="geometry">
            <mxPoint y="90" as="sourcePoint" />
            <mxPoint as="targetPoint" />
          </mxGeometry>
        </mxCell>
        <mxCell id="Nd6j2Neas8TOyWglooFA-241" style="edgeStyle=orthogonalEdgeStyle;rounded=0;orthogonalLoop=1;jettySize=auto;html=1;startArrow=ERone;startFill=0;endArrow=ERmany;endFill=0;" edge="1" parent="Nd6j2Neas8TOyWglooFA-234" source="Nd6j2Neas8TOyWglooFA-11">
          <mxGeometry relative="1" as="geometry">
            <mxPoint x="-210" y="705" as="targetPoint" />
            <Array as="points">
              <mxPoint x="-20" y="75" />
              <mxPoint x="-20" y="705" />
            </Array>
          </mxGeometry>
        </mxCell>
        <mxCell id="Nd6j2Neas8TOyWglooFA-235" value="" style="group" vertex="1" connectable="0" parent="1">
          <mxGeometry x="-10" y="-200" width="130" height="190" as="geometry" />
        </mxCell>
        <mxCell id="Nd6j2Neas8TOyWglooFA-6" value="FK" style="shape=partialRectangle;overflow=hidden;connectable=0;fillColor=none;top=0;left=0;bottom=0;right=0;" vertex="1" parent="Nd6j2Neas8TOyWglooFA-235">
          <mxGeometry y="150" width="30" height="30" as="geometry" />
        </mxCell>
        <mxCell id="Nd6j2Neas8TOyWglooFA-21" value="Ruta    " style="shape=table;startSize=30;container=1;collapsible=1;childLayout=tableLayout;fixedRows=1;rowLines=0;fontStyle=1;align=center;resizeLast=1;" vertex="1" parent="Nd6j2Neas8TOyWglooFA-235">
          <mxGeometry width="130" height="190" as="geometry" />
        </mxCell>
        <mxCell id="Nd6j2Neas8TOyWglooFA-22" value="" style="shape=partialRectangle;collapsible=0;dropTarget=0;pointerEvents=0;fillColor=none;points=[[0,0.5],[1,0.5]];portConstraint=eastwest;top=0;left=0;right=0;bottom=1;" vertex="1" parent="Nd6j2Neas8TOyWglooFA-21">
          <mxGeometry y="30" width="130" height="30" as="geometry" />
        </mxCell>
        <mxCell id="Nd6j2Neas8TOyWglooFA-23" value="PK" style="shape=partialRectangle;overflow=hidden;connectable=0;fillColor=none;top=0;left=0;bottom=0;right=0;fontStyle=1;" vertex="1" parent="Nd6j2Neas8TOyWglooFA-22">
          <mxGeometry width="30" height="30" as="geometry">
            <mxRectangle width="30" height="30" as="alternateBounds" />
          </mxGeometry>
        </mxCell>
        <mxCell id="Nd6j2Neas8TOyWglooFA-24" value="rutaID" style="shape=partialRectangle;overflow=hidden;connectable=0;fillColor=none;top=0;left=0;bottom=0;right=0;align=left;spacingLeft=6;fontStyle=5;" vertex="1" parent="Nd6j2Neas8TOyWglooFA-22">
          <mxGeometry x="30" width="100" height="30" as="geometry">
            <mxRectangle width="100" height="30" as="alternateBounds" />
          </mxGeometry>
        </mxCell>
        <mxCell id="Nd6j2Neas8TOyWglooFA-25" value="" style="shape=partialRectangle;collapsible=0;dropTarget=0;pointerEvents=0;fillColor=none;points=[[0,0.5],[1,0.5]];portConstraint=eastwest;top=0;left=0;right=0;bottom=0;" vertex="1" parent="Nd6j2Neas8TOyWglooFA-21">
          <mxGeometry y="60" width="130" height="30" as="geometry" />
        </mxCell>
        <mxCell id="Nd6j2Neas8TOyWglooFA-26" value="" style="shape=partialRectangle;overflow=hidden;connectable=0;fillColor=none;top=0;left=0;bottom=0;right=0;" vertex="1" parent="Nd6j2Neas8TOyWglooFA-25">
          <mxGeometry width="30" height="30" as="geometry">
            <mxRectangle width="30" height="30" as="alternateBounds" />
          </mxGeometry>
        </mxCell>
        <mxCell id="Nd6j2Neas8TOyWglooFA-27" value="destino" style="shape=partialRectangle;overflow=hidden;connectable=0;fillColor=none;top=0;left=0;bottom=0;right=0;align=left;spacingLeft=6;" vertex="1" parent="Nd6j2Neas8TOyWglooFA-25">
          <mxGeometry x="30" width="100" height="30" as="geometry">
            <mxRectangle width="100" height="30" as="alternateBounds" />
          </mxGeometry>
        </mxCell>
        <mxCell id="Nd6j2Neas8TOyWglooFA-28" value="" style="group" vertex="1" connectable="0" parent="Nd6j2Neas8TOyWglooFA-235">
          <mxGeometry x="30" y="90" width="100" height="90" as="geometry" />
        </mxCell>
        <mxCell id="Nd6j2Neas8TOyWglooFA-29" value="costo_total" style="shape=partialRectangle;overflow=hidden;connectable=0;fillColor=none;top=0;left=0;bottom=0;right=0;align=left;spacingLeft=6;" vertex="1" parent="Nd6j2Neas8TOyWglooFA-28">
          <mxGeometry width="100" height="30" as="geometry">
            <mxRectangle width="220" height="30" as="alternateBounds" />
          </mxGeometry>
        </mxCell>
        <mxCell id="Nd6j2Neas8TOyWglooFA-30" value="cuota_destino" style="shape=partialRectangle;overflow=hidden;connectable=0;fillColor=none;top=0;left=0;bottom=0;right=0;align=left;spacingLeft=6;" vertex="1" parent="Nd6j2Neas8TOyWglooFA-28">
          <mxGeometry y="30" width="100" height="30" as="geometry">
            <mxRectangle width="220" height="30" as="alternateBounds" />
          </mxGeometry>
        </mxCell>
        <mxCell id="Nd6j2Neas8TOyWglooFA-31" value="usuarioID" style="shape=partialRectangle;overflow=hidden;connectable=0;fillColor=none;top=0;left=0;bottom=0;right=0;align=left;spacingLeft=6;" vertex="1" parent="Nd6j2Neas8TOyWglooFA-28">
          <mxGeometry y="60" width="100" height="30" as="geometry">
            <mxRectangle width="220" height="30" as="alternateBounds" />
          </mxGeometry>
        </mxCell>
        <mxCell id="Nd6j2Neas8TOyWglooFA-32" value="" style="endArrow=none;html=1;rounded=0;entryX=0.121;entryY=0.973;entryDx=0;entryDy=0;entryPerimeter=0;" edge="1" parent="Nd6j2Neas8TOyWglooFA-28">
          <mxGeometry width="50" height="50" relative="1" as="geometry">
            <mxPoint y="90" as="sourcePoint" />
            <mxPoint as="targetPoint" />
          </mxGeometry>
        </mxCell>
        <mxCell id="Nd6j2Neas8TOyWglooFA-237" style="edgeStyle=orthogonalEdgeStyle;rounded=0;orthogonalLoop=1;jettySize=auto;html=1;entryX=-0.004;entryY=0.123;entryDx=0;entryDy=0;entryPerimeter=0;startArrow=ERone;startFill=0;endArrow=ERmany;endFill=0;" edge="1" parent="1" source="C-vyLk0tnHw3VtMMgP7b-27" target="Nd6j2Neas8TOyWglooFA-7">
          <mxGeometry relative="1" as="geometry" />
        </mxCell>
        <mxCell id="Nd6j2Neas8TOyWglooFA-238" style="edgeStyle=orthogonalEdgeStyle;rounded=0;orthogonalLoop=1;jettySize=auto;html=1;entryX=0.566;entryY=0;entryDx=0;entryDy=0;entryPerimeter=0;startArrow=ERone;startFill=0;endArrow=ERmany;endFill=0;" edge="1" parent="1" source="C-vyLk0tnHw3VtMMgP7b-24" target="Nd6j2Neas8TOyWglooFA-21">
          <mxGeometry relative="1" as="geometry" />
        </mxCell>
        <mxCell id="Nd6j2Neas8TOyWglooFA-239" style="edgeStyle=orthogonalEdgeStyle;rounded=0;orthogonalLoop=1;jettySize=auto;html=1;entryX=1;entryY=0.5;entryDx=0;entryDy=0;startArrow=ERone;startFill=0;endArrow=ERmany;endFill=0;" edge="1" parent="1" source="Nd6j2Neas8TOyWglooFA-25" target="Nd6j2Neas8TOyWglooFA-38">
          <mxGeometry relative="1" as="geometry" />
        </mxCell>
        <mxCell id="Nd6j2Neas8TOyWglooFA-240" style="edgeStyle=orthogonalEdgeStyle;rounded=0;orthogonalLoop=1;jettySize=auto;html=1;startArrow=ERone;startFill=0;endArrow=ERmany;endFill=0;" edge="1" parent="1" target="Nd6j2Neas8TOyWglooFA-47">
          <mxGeometry relative="1" as="geometry">
            <mxPoint x="-137.5" y="-50" as="sourcePoint" />
            <mxPoint x="-100" y="155" as="targetPoint" />
            <Array as="points">
              <mxPoint x="-90" y="-50" />
              <mxPoint x="-90" y="30" />
              <mxPoint x="-100" y="30" />
            </Array>
          </mxGeometry>
        </mxCell>
        <mxCell id="Nd6j2Neas8TOyWglooFA-242" value="" style="group" vertex="1" connectable="0" parent="1">
          <mxGeometry x="-650" y="10" width="220" height="160" as="geometry" />
        </mxCell>
        <mxCell id="Nd6j2Neas8TOyWglooFA-213" value="ImagenRuta" style="shape=table;startSize=30;container=1;collapsible=1;childLayout=tableLayout;fixedRows=1;rowLines=0;fontStyle=1;align=center;resizeLast=1;" vertex="1" parent="Nd6j2Neas8TOyWglooFA-242">
          <mxGeometry width="220" height="160" as="geometry" />
        </mxCell>
        <mxCell id="Nd6j2Neas8TOyWglooFA-214" value="" style="shape=partialRectangle;collapsible=0;dropTarget=0;pointerEvents=0;fillColor=none;points=[[0,0.5],[1,0.5]];portConstraint=eastwest;top=0;left=0;right=0;bottom=1;" vertex="1" parent="Nd6j2Neas8TOyWglooFA-213">
          <mxGeometry y="30" width="220" height="30" as="geometry" />
        </mxCell>
        <mxCell id="Nd6j2Neas8TOyWglooFA-215" value="PK" style="shape=partialRectangle;overflow=hidden;connectable=0;fillColor=none;top=0;left=0;bottom=0;right=0;fontStyle=1;" vertex="1" parent="Nd6j2Neas8TOyWglooFA-214">
          <mxGeometry width="30" height="30" as="geometry">
            <mxRectangle width="30" height="30" as="alternateBounds" />
          </mxGeometry>
        </mxCell>
        <mxCell id="Nd6j2Neas8TOyWglooFA-216" value="imagenID" style="shape=partialRectangle;overflow=hidden;connectable=0;fillColor=none;top=0;left=0;bottom=0;right=0;align=left;spacingLeft=6;fontStyle=5;" vertex="1" parent="Nd6j2Neas8TOyWglooFA-214">
          <mxGeometry x="30" width="190" height="30" as="geometry">
            <mxRectangle width="190" height="30" as="alternateBounds" />
          </mxGeometry>
        </mxCell>
        <mxCell id="Nd6j2Neas8TOyWglooFA-217" value="" style="shape=partialRectangle;collapsible=0;dropTarget=0;pointerEvents=0;fillColor=none;points=[[0,0.5],[1,0.5]];portConstraint=eastwest;top=0;left=0;right=0;bottom=0;" vertex="1" parent="Nd6j2Neas8TOyWglooFA-213">
          <mxGeometry y="60" width="220" height="30" as="geometry" />
        </mxCell>
        <mxCell id="Nd6j2Neas8TOyWglooFA-218" value="" style="shape=partialRectangle;overflow=hidden;connectable=0;fillColor=none;top=0;left=0;bottom=0;right=0;" vertex="1" parent="Nd6j2Neas8TOyWglooFA-217">
          <mxGeometry width="30" height="30" as="geometry">
            <mxRectangle width="30" height="30" as="alternateBounds" />
          </mxGeometry>
        </mxCell>
        <mxCell id="Nd6j2Neas8TOyWglooFA-219" value="rutaID" style="shape=partialRectangle;overflow=hidden;connectable=0;fillColor=none;top=0;left=0;bottom=0;right=0;align=left;spacingLeft=6;" vertex="1" parent="Nd6j2Neas8TOyWglooFA-217">
          <mxGeometry x="30" width="190" height="30" as="geometry">
            <mxRectangle width="190" height="30" as="alternateBounds" />
          </mxGeometry>
        </mxCell>
        <mxCell id="Nd6j2Neas8TOyWglooFA-220" value="" style="shape=partialRectangle;collapsible=0;dropTarget=0;pointerEvents=0;fillColor=none;points=[[0,0.5],[1,0.5]];portConstraint=eastwest;top=0;left=0;right=0;bottom=0;" vertex="1" parent="Nd6j2Neas8TOyWglooFA-213">
          <mxGeometry y="90" width="220" height="30" as="geometry" />
        </mxCell>
        <mxCell id="Nd6j2Neas8TOyWglooFA-221" value="" style="shape=partialRectangle;overflow=hidden;connectable=0;fillColor=none;top=0;left=0;bottom=0;right=0;" vertex="1" parent="Nd6j2Neas8TOyWglooFA-220">
          <mxGeometry width="30" height="30" as="geometry">
            <mxRectangle width="30" height="30" as="alternateBounds" />
          </mxGeometry>
        </mxCell>
        <mxCell id="Nd6j2Neas8TOyWglooFA-222" value="imagen_url" style="shape=partialRectangle;overflow=hidden;connectable=0;fillColor=none;top=0;left=0;bottom=0;right=0;align=left;spacingLeft=6;" vertex="1" parent="Nd6j2Neas8TOyWglooFA-220">
          <mxGeometry x="30" width="190" height="30" as="geometry">
            <mxRectangle width="190" height="30" as="alternateBounds" />
          </mxGeometry>
        </mxCell>
        <mxCell id="Nd6j2Neas8TOyWglooFA-223" value="" style="shape=partialRectangle;collapsible=0;dropTarget=0;pointerEvents=0;fillColor=none;points=[[0,0.5],[1,0.5]];portConstraint=eastwest;top=0;left=0;right=0;bottom=0;" vertex="1" parent="Nd6j2Neas8TOyWglooFA-213">
          <mxGeometry y="120" width="220" height="30" as="geometry" />
        </mxCell>
        <mxCell id="Nd6j2Neas8TOyWglooFA-224" value="" style="shape=partialRectangle;overflow=hidden;connectable=0;fillColor=none;top=0;left=0;bottom=0;right=0;" vertex="1" parent="Nd6j2Neas8TOyWglooFA-223">
          <mxGeometry width="30" height="30" as="geometry">
            <mxRectangle width="30" height="30" as="alternateBounds" />
          </mxGeometry>
        </mxCell>
        <mxCell id="Nd6j2Neas8TOyWglooFA-225" value="descripcion_imagen" style="shape=partialRectangle;overflow=hidden;connectable=0;fillColor=none;top=0;left=0;bottom=0;right=0;align=left;spacingLeft=6;" vertex="1" parent="Nd6j2Neas8TOyWglooFA-223">
          <mxGeometry x="30" width="190" height="30" as="geometry">
            <mxRectangle width="190" height="30" as="alternateBounds" />
          </mxGeometry>
        </mxCell>
        <mxCell id="Nd6j2Neas8TOyWglooFA-226" value="FK" style="shape=partialRectangle;overflow=hidden;connectable=0;fillColor=none;top=0;left=0;bottom=0;right=0;" vertex="1" parent="Nd6j2Neas8TOyWglooFA-242">
          <mxGeometry y="60" width="30" height="30" as="geometry">
            <mxRectangle width="30" height="30" as="alternateBounds" />
          </mxGeometry>
        </mxCell>
        <mxCell id="Nd6j2Neas8TOyWglooFA-245" style="edgeStyle=orthogonalEdgeStyle;rounded=0;orthogonalLoop=1;jettySize=auto;html=1;entryX=0;entryY=0.5;entryDx=0;entryDy=0;startArrow=ERone;startFill=0;endArrow=ERone;endFill=0;" edge="1" parent="1" source="Nd6j2Neas8TOyWglooFA-22" target="Nd6j2Neas8TOyWglooFA-121">
          <mxGeometry relative="1" as="geometry" />
        </mxCell>
        <mxCell id="Nd6j2Neas8TOyWglooFA-246" style="edgeStyle=orthogonalEdgeStyle;rounded=0;orthogonalLoop=1;jettySize=auto;html=1;entryX=0.002;entryY=0.864;entryDx=0;entryDy=0;entryPerimeter=0;startArrow=ERone;startFill=0;endArrow=ERone;endFill=0;" edge="1" parent="1" source="Nd6j2Neas8TOyWglooFA-21" target="Nd6j2Neas8TOyWglooFA-103">
          <mxGeometry relative="1" as="geometry">
            <Array as="points">
              <mxPoint x="30" y="126" />
            </Array>
          </mxGeometry>
        </mxCell>
        <mxCell id="Nd6j2Neas8TOyWglooFA-247" style="edgeStyle=orthogonalEdgeStyle;rounded=0;orthogonalLoop=1;jettySize=auto;html=1;entryX=-0.001;entryY=0.175;entryDx=0;entryDy=0;entryPerimeter=0;startArrow=ERone;startFill=0;endArrow=ERone;endFill=0;" edge="1" parent="1" source="Nd6j2Neas8TOyWglooFA-7" target="Nd6j2Neas8TOyWglooFA-203">
          <mxGeometry relative="1" as="geometry" />
        </mxCell>
        <mxCell id="Nd6j2Neas8TOyWglooFA-249" value="" style="group" vertex="1" connectable="0" parent="1">
          <mxGeometry x="515" y="-425" width="220" height="160" as="geometry" />
        </mxCell>
        <mxCell id="Nd6j2Neas8TOyWglooFA-199" value="Factura" style="shape=table;startSize=30;container=1;collapsible=1;childLayout=tableLayout;fixedRows=1;rowLines=0;fontStyle=1;align=center;resizeLast=1;" vertex="1" parent="Nd6j2Neas8TOyWglooFA-249">
          <mxGeometry width="220" height="160" as="geometry" />
        </mxCell>
        <mxCell id="Nd6j2Neas8TOyWglooFA-200" value="" style="shape=partialRectangle;collapsible=0;dropTarget=0;pointerEvents=0;fillColor=none;points=[[0,0.5],[1,0.5]];portConstraint=eastwest;top=0;left=0;right=0;bottom=1;" vertex="1" parent="Nd6j2Neas8TOyWglooFA-199">
          <mxGeometry y="30" width="220" height="30" as="geometry" />
        </mxCell>
        <mxCell id="Nd6j2Neas8TOyWglooFA-201" value="PK" style="shape=partialRectangle;overflow=hidden;connectable=0;fillColor=none;top=0;left=0;bottom=0;right=0;fontStyle=1;" vertex="1" parent="Nd6j2Neas8TOyWglooFA-200">
          <mxGeometry width="30" height="30" as="geometry">
            <mxRectangle width="30" height="30" as="alternateBounds" />
          </mxGeometry>
        </mxCell>
        <mxCell id="Nd6j2Neas8TOyWglooFA-202" value="facturaID" style="shape=partialRectangle;overflow=hidden;connectable=0;fillColor=none;top=0;left=0;bottom=0;right=0;align=left;spacingLeft=6;fontStyle=5;" vertex="1" parent="Nd6j2Neas8TOyWglooFA-200">
          <mxGeometry x="30" width="190" height="30" as="geometry">
            <mxRectangle width="190" height="30" as="alternateBounds" />
          </mxGeometry>
        </mxCell>
        <mxCell id="Nd6j2Neas8TOyWglooFA-203" value="" style="shape=partialRectangle;collapsible=0;dropTarget=0;pointerEvents=0;fillColor=none;points=[[0,0.5],[1,0.5]];portConstraint=eastwest;top=0;left=0;right=0;bottom=0;" vertex="1" parent="Nd6j2Neas8TOyWglooFA-199">
          <mxGeometry y="60" width="220" height="30" as="geometry" />
        </mxCell>
        <mxCell id="Nd6j2Neas8TOyWglooFA-204" value="" style="shape=partialRectangle;overflow=hidden;connectable=0;fillColor=none;top=0;left=0;bottom=0;right=0;" vertex="1" parent="Nd6j2Neas8TOyWglooFA-203">
          <mxGeometry width="30" height="30" as="geometry">
            <mxRectangle width="30" height="30" as="alternateBounds" />
          </mxGeometry>
        </mxCell>
        <mxCell id="Nd6j2Neas8TOyWglooFA-205" value="clienteID" style="shape=partialRectangle;overflow=hidden;connectable=0;fillColor=none;top=0;left=0;bottom=0;right=0;align=left;spacingLeft=6;" vertex="1" parent="Nd6j2Neas8TOyWglooFA-203">
          <mxGeometry x="30" width="190" height="30" as="geometry">
            <mxRectangle width="190" height="30" as="alternateBounds" />
          </mxGeometry>
        </mxCell>
        <mxCell id="Nd6j2Neas8TOyWglooFA-206" value="" style="shape=partialRectangle;collapsible=0;dropTarget=0;pointerEvents=0;fillColor=none;points=[[0,0.5],[1,0.5]];portConstraint=eastwest;top=0;left=0;right=0;bottom=0;" vertex="1" parent="Nd6j2Neas8TOyWglooFA-199">
          <mxGeometry y="90" width="220" height="30" as="geometry" />
        </mxCell>
        <mxCell id="Nd6j2Neas8TOyWglooFA-207" value="" style="shape=partialRectangle;overflow=hidden;connectable=0;fillColor=none;top=0;left=0;bottom=0;right=0;" vertex="1" parent="Nd6j2Neas8TOyWglooFA-206">
          <mxGeometry width="30" height="30" as="geometry">
            <mxRectangle width="30" height="30" as="alternateBounds" />
          </mxGeometry>
        </mxCell>
        <mxCell id="Nd6j2Neas8TOyWglooFA-208" value="fecha_emision" style="shape=partialRectangle;overflow=hidden;connectable=0;fillColor=none;top=0;left=0;bottom=0;right=0;align=left;spacingLeft=6;" vertex="1" parent="Nd6j2Neas8TOyWglooFA-206">
          <mxGeometry x="30" width="190" height="30" as="geometry">
            <mxRectangle width="190" height="30" as="alternateBounds" />
          </mxGeometry>
        </mxCell>
        <mxCell id="Nd6j2Neas8TOyWglooFA-210" value="" style="shape=partialRectangle;collapsible=0;dropTarget=0;pointerEvents=0;fillColor=none;points=[[0,0.5],[1,0.5]];portConstraint=eastwest;top=0;left=0;right=0;bottom=0;" vertex="1" parent="Nd6j2Neas8TOyWglooFA-199">
          <mxGeometry y="120" width="220" height="30" as="geometry" />
        </mxCell>
        <mxCell id="Nd6j2Neas8TOyWglooFA-211" value="" style="shape=partialRectangle;overflow=hidden;connectable=0;fillColor=none;top=0;left=0;bottom=0;right=0;" vertex="1" parent="Nd6j2Neas8TOyWglooFA-210">
          <mxGeometry width="30" height="30" as="geometry">
            <mxRectangle width="30" height="30" as="alternateBounds" />
          </mxGeometry>
        </mxCell>
        <mxCell id="Nd6j2Neas8TOyWglooFA-212" value="total_factura" style="shape=partialRectangle;overflow=hidden;connectable=0;fillColor=none;top=0;left=0;bottom=0;right=0;align=left;spacingLeft=6;" vertex="1" parent="Nd6j2Neas8TOyWglooFA-210">
          <mxGeometry x="30" width="190" height="30" as="geometry">
            <mxRectangle width="190" height="30" as="alternateBounds" />
          </mxGeometry>
        </mxCell>
        <mxCell id="Nd6j2Neas8TOyWglooFA-248" value="FK" style="shape=partialRectangle;overflow=hidden;connectable=0;fillColor=none;top=0;left=0;bottom=0;right=0;" vertex="1" parent="Nd6j2Neas8TOyWglooFA-249">
          <mxGeometry y="58" width="30" height="31" as="geometry">
            <mxRectangle width="30" height="30" as="alternateBounds" />
          </mxGeometry>
        </mxCell>
        <mxCell id="Nd6j2Neas8TOyWglooFA-250" style="edgeStyle=orthogonalEdgeStyle;rounded=0;orthogonalLoop=1;jettySize=auto;html=1;entryX=1;entryY=0.5;entryDx=0;entryDy=0;startArrow=ERone;startFill=0;endArrow=ERone;endFill=0;" edge="1" parent="1" source="Nd6j2Neas8TOyWglooFA-47" target="Nd6j2Neas8TOyWglooFA-128">
          <mxGeometry relative="1" as="geometry" />
        </mxCell>
        <mxCell id="Nd6j2Neas8TOyWglooFA-251" style="edgeStyle=orthogonalEdgeStyle;rounded=0;orthogonalLoop=1;jettySize=auto;html=1;entryX=1.001;entryY=0.251;entryDx=0;entryDy=0;entryPerimeter=0;startArrow=ERmany;startFill=0;endArrow=ERmany;endFill=0;" edge="1" parent="1" source="C-vyLk0tnHw3VtMMgP7b-23" target="Nd6j2Neas8TOyWglooFA-172">
          <mxGeometry relative="1" as="geometry" />
        </mxCell>
        <mxCell id="Nd6j2Neas8TOyWglooFA-253" style="edgeStyle=orthogonalEdgeStyle;rounded=0;orthogonalLoop=1;jettySize=auto;html=1;entryX=0.5;entryY=0;entryDx=0;entryDy=0;startArrow=ERone;startFill=0;endArrow=ERone;endFill=0;" edge="1" parent="1" source="Nd6j2Neas8TOyWglooFA-21" target="Nd6j2Neas8TOyWglooFA-63">
          <mxGeometry relative="1" as="geometry">
            <Array as="points">
              <mxPoint x="80" y="150" />
              <mxPoint x="195" y="150" />
            </Array>
          </mxGeometry>
        </mxCell>
        <mxCell id="Nd6j2Neas8TOyWglooFA-255" style="edgeStyle=orthogonalEdgeStyle;rounded=0;orthogonalLoop=1;jettySize=auto;html=1;entryX=0.001;entryY=0.352;entryDx=0;entryDy=0;entryPerimeter=0;startArrow=ERone;startFill=0;endArrow=ERmany;endFill=0;" edge="1" parent="1">
          <mxGeometry relative="1" as="geometry">
            <mxPoint x="240.21000000000004" y="-454.9999999999998" as="sourcePoint" />
            <mxPoint x="360.0049999999999" y="-634.44" as="targetPoint" />
            <Array as="points">
              <mxPoint x="239.79000000000002" y="-634" />
            </Array>
          </mxGeometry>
        </mxCell>
        <mxCell id="Nd6j2Neas8TOyWglooFA-257" value="" style="group" vertex="1" connectable="0" parent="1">
          <mxGeometry x="-400" y="-670" width="290" height="130" as="geometry" />
        </mxCell>
        <mxCell id="Nd6j2Neas8TOyWglooFA-244" value="" style="group" vertex="1" connectable="0" parent="Nd6j2Neas8TOyWglooFA-257">
          <mxGeometry y="34" width="290" height="86" as="geometry" />
        </mxCell>
        <mxCell id="Nd6j2Neas8TOyWglooFA-178" value="FK" style="shape=partialRectangle;overflow=hidden;connectable=0;fillColor=none;top=0;left=0;bottom=0;right=0;" vertex="1" parent="Nd6j2Neas8TOyWglooFA-244">
          <mxGeometry y="62" width="30" height="20" as="geometry">
            <mxRectangle width="30" height="30" as="alternateBounds" />
          </mxGeometry>
        </mxCell>
        <mxCell id="Nd6j2Neas8TOyWglooFA-168" value="DesactivacionElementos" style="shape=table;startSize=30;container=1;collapsible=1;childLayout=tableLayout;fixedRows=1;rowLines=0;fontStyle=1;align=center;resizeLast=1;" vertex="1" parent="Nd6j2Neas8TOyWglooFA-257">
          <mxGeometry width="290" height="130" as="geometry" />
        </mxCell>
        <mxCell id="Nd6j2Neas8TOyWglooFA-169" value="" style="shape=partialRectangle;collapsible=0;dropTarget=0;pointerEvents=0;fillColor=none;points=[[0,0.5],[1,0.5]];portConstraint=eastwest;top=0;left=0;right=0;bottom=1;" vertex="1" parent="Nd6j2Neas8TOyWglooFA-168">
          <mxGeometry y="30" width="290" height="30" as="geometry" />
        </mxCell>
        <mxCell id="Nd6j2Neas8TOyWglooFA-170" value="PK" style="shape=partialRectangle;overflow=hidden;connectable=0;fillColor=none;top=0;left=0;bottom=0;right=0;fontStyle=1;" vertex="1" parent="Nd6j2Neas8TOyWglooFA-169">
          <mxGeometry width="30" height="30" as="geometry">
            <mxRectangle width="30" height="30" as="alternateBounds" />
          </mxGeometry>
        </mxCell>
        <mxCell id="Nd6j2Neas8TOyWglooFA-171" value="desactivacionID" style="shape=partialRectangle;overflow=hidden;connectable=0;fillColor=none;top=0;left=0;bottom=0;right=0;align=left;spacingLeft=6;fontStyle=5;" vertex="1" parent="Nd6j2Neas8TOyWglooFA-169">
          <mxGeometry x="30" width="260" height="30" as="geometry">
            <mxRectangle width="260" height="30" as="alternateBounds" />
          </mxGeometry>
        </mxCell>
        <mxCell id="Nd6j2Neas8TOyWglooFA-172" value="" style="shape=partialRectangle;collapsible=0;dropTarget=0;pointerEvents=0;fillColor=none;points=[[0,0.5],[1,0.5]];portConstraint=eastwest;top=0;left=0;right=0;bottom=0;" vertex="1" parent="Nd6j2Neas8TOyWglooFA-168">
          <mxGeometry y="60" width="290" height="30" as="geometry" />
        </mxCell>
        <mxCell id="Nd6j2Neas8TOyWglooFA-173" value="" style="shape=partialRectangle;overflow=hidden;connectable=0;fillColor=none;top=0;left=0;bottom=0;right=0;" vertex="1" parent="Nd6j2Neas8TOyWglooFA-172">
          <mxGeometry width="30" height="30" as="geometry">
            <mxRectangle width="30" height="30" as="alternateBounds" />
          </mxGeometry>
        </mxCell>
        <mxCell id="Nd6j2Neas8TOyWglooFA-174" value="tipo_elemento(usuario/ruta/punto_de_control)" style="shape=partialRectangle;overflow=hidden;connectable=0;fillColor=none;top=0;left=0;bottom=0;right=0;align=left;spacingLeft=6;" vertex="1" parent="Nd6j2Neas8TOyWglooFA-172">
          <mxGeometry x="30" width="260" height="30" as="geometry">
            <mxRectangle width="260" height="30" as="alternateBounds" />
          </mxGeometry>
        </mxCell>
        <mxCell id="Nd6j2Neas8TOyWglooFA-175" value="" style="shape=partialRectangle;collapsible=0;dropTarget=0;pointerEvents=0;fillColor=none;points=[[0,0.5],[1,0.5]];portConstraint=eastwest;top=0;left=0;right=0;bottom=0;" vertex="1" parent="Nd6j2Neas8TOyWglooFA-168">
          <mxGeometry y="90" width="290" height="30" as="geometry" />
        </mxCell>
        <mxCell id="Nd6j2Neas8TOyWglooFA-176" value="" style="shape=partialRectangle;overflow=hidden;connectable=0;fillColor=none;top=0;left=0;bottom=0;right=0;" vertex="1" parent="Nd6j2Neas8TOyWglooFA-175">
          <mxGeometry width="30" height="30" as="geometry">
            <mxRectangle width="30" height="30" as="alternateBounds" />
          </mxGeometry>
        </mxCell>
        <mxCell id="Nd6j2Neas8TOyWglooFA-177" value="elementoID(usuario/ruta/punto_de_control)" style="shape=partialRectangle;overflow=hidden;connectable=0;fillColor=none;top=0;left=0;bottom=0;right=0;align=left;spacingLeft=6;" vertex="1" parent="Nd6j2Neas8TOyWglooFA-175">
          <mxGeometry x="30" width="260" height="30" as="geometry">
            <mxRectangle width="260" height="30" as="alternateBounds" />
          </mxGeometry>
        </mxCell>
        <mxCell id="Nd6j2Neas8TOyWglooFA-258" style="edgeStyle=orthogonalEdgeStyle;rounded=0;orthogonalLoop=1;jettySize=auto;html=1;entryX=1;entryY=0.5;entryDx=0;entryDy=0;startArrow=ERone;startFill=0;endArrow=ERmany;endFill=0;" edge="1" parent="1" source="Nd6j2Neas8TOyWglooFA-21" target="Nd6j2Neas8TOyWglooFA-82">
          <mxGeometry relative="1" as="geometry">
            <Array as="points">
              <mxPoint x="40" y="-230" />
              <mxPoint x="-250" y="-230" />
              <mxPoint x="-250" y="-345" />
            </Array>
          </mxGeometry>
        </mxCell>
        <mxCell id="Nd6j2Neas8TOyWglooFA-260" style="edgeStyle=orthogonalEdgeStyle;rounded=0;orthogonalLoop=1;jettySize=auto;html=1;entryX=0;entryY=0.75;entryDx=0;entryDy=0;endArrow=ERone;endFill=0;startArrow=ERmany;startFill=0;" edge="1" parent="1" source="Nd6j2Neas8TOyWglooFA-213" target="Nd6j2Neas8TOyWglooFA-21">
          <mxGeometry relative="1" as="geometry">
            <Array as="points">
              <mxPoint x="-220" y="90" />
              <mxPoint x="-220" y="40" />
              <mxPoint x="-40" y="40" />
              <mxPoint x="-40" y="-57" />
            </Array>
          </mxGeometry>
        </mxCell>
      </root>
    </mxGraphModel>
  </diagram>
</mxfile>
